<svg width="3779" height="1063" viewBox="0 0 3779 1063" fill="none" xmlns="http://www.w3.org/2000/svg">
<line x1="3437" y1="369" x2="10" y2="369.001" stroke="#737370" stroke-width="10" stroke-dasharray="10 10"/>
<line x1="3437" y1="1058" x2="10" y2="1058" stroke="#737370" stroke-width="10" stroke-dasharray="10 10"/>
<line x1="3437" y1="826" x2="10" y2="826.001" stroke="#737370" stroke-width="10" stroke-dasharray="10 10"/>
<line x1="3437" y1="600" x2="10" y2="600.001" stroke="#737370" stroke-width="10" stroke-dasharray="10 10"/>
<path d="M35.8898 335.994V63.2667H98.958V84.1474H59.7535V315.113H98.958V335.994H35.8898ZM153.956 73.494V148.494H130.519V73.494H153.956ZM208.502 73.494V148.494H185.064V73.494H208.502ZM301.373 295.511C291.003 295.511 281.593 293.558 273.141 289.652C264.69 285.674 257.978 279.957 253.006 272.5C248.035 264.971 245.549 255.88 245.549 245.227C245.549 235.852 247.396 228.252 251.089 222.429C254.782 216.534 259.718 211.917 265.897 208.579C272.076 205.241 278.894 202.755 286.351 201.122C293.88 199.417 301.444 198.068 309.043 197.074C318.986 195.795 327.047 194.836 333.226 194.197C339.476 193.487 344.022 192.315 346.863 190.681C349.775 189.048 351.231 186.207 351.231 182.159V181.306C351.231 170.795 348.354 162.627 342.601 156.804C336.92 150.98 328.29 148.068 316.714 148.068C304.711 148.068 295.3 150.696 288.482 155.951C281.664 161.207 276.87 166.818 274.1 172.784L250.236 164.261C254.498 154.318 260.18 146.576 267.282 141.037C274.455 135.426 282.268 131.52 290.719 129.318C299.242 127.045 307.623 125.909 315.861 125.909C321.117 125.909 327.154 126.548 333.972 127.826C340.861 129.034 347.502 131.555 353.894 135.39C360.357 139.225 365.719 145.014 369.981 152.755C374.242 160.497 376.373 170.866 376.373 183.863V291.676H351.231V269.517H349.952C348.248 273.068 345.407 276.868 341.43 280.916C337.452 284.964 332.161 288.409 325.556 291.25C318.951 294.091 310.89 295.511 301.373 295.511ZM305.208 272.926C315.151 272.926 323.532 270.973 330.35 267.066C337.239 263.16 342.424 258.118 345.904 251.939C349.455 245.76 351.231 239.261 351.231 232.443V209.431C350.165 210.71 347.822 211.882 344.199 212.947C340.648 213.941 336.529 214.829 331.842 215.61C327.225 216.321 322.715 216.96 318.312 217.528C313.979 218.025 310.464 218.451 307.765 218.806C301.231 219.659 295.123 221.044 289.441 222.961C283.83 224.808 279.285 227.613 275.805 231.377C272.396 235.071 270.691 240.113 270.691 246.505C270.691 255.241 273.922 261.846 280.386 266.321C286.92 270.724 295.194 272.926 305.208 272.926ZM443.995 73.494V148.494H420.558V73.494H443.995ZM498.541 73.494V148.494H475.103V73.494H498.541ZM556.149 261.846L554.445 273.352C553.237 281.449 551.391 290.113 548.905 299.346C546.49 308.579 543.969 317.279 541.341 325.447C538.713 333.615 536.547 340.113 534.842 344.943H515.666C516.589 340.397 517.797 334.396 519.288 326.939C520.78 319.481 522.271 311.136 523.763 301.903C525.325 292.741 526.604 283.366 527.598 273.778L528.876 261.846H556.149ZM708.839 73.494V148.494H685.402V73.494H708.839ZM763.384 73.494V148.494H739.947V73.494H763.384ZM811.511 291.676V73.494H836.653V154.034H838.784C840.631 151.193 843.187 147.571 846.454 143.167C849.793 138.693 854.551 134.716 860.73 131.235C866.98 127.684 875.432 125.909 886.085 125.909C899.864 125.909 912.008 129.353 922.52 136.243C933.031 143.132 941.234 152.897 947.129 165.539C953.024 178.181 955.972 193.096 955.972 210.284C955.972 227.613 953.024 242.635 947.129 255.348C941.234 267.99 933.067 277.791 922.626 284.751C912.186 291.64 900.148 295.085 886.511 295.085C876 295.085 867.584 293.345 861.263 289.865C854.942 286.314 850.077 282.301 846.668 277.826C843.258 273.281 840.631 269.517 838.784 266.534H835.801V291.676H811.511ZM836.227 209.858C836.227 222.216 838.038 233.118 841.66 242.564C845.283 251.939 850.574 259.289 857.534 264.616C864.494 269.872 873.017 272.5 883.102 272.5C893.614 272.5 902.385 269.73 909.416 264.19C916.518 258.579 921.845 251.051 925.396 241.605C929.018 232.088 930.829 221.505 930.829 209.858C930.829 198.352 929.054 187.983 925.503 178.75C922.023 169.446 916.731 162.095 909.629 156.697C902.598 151.228 893.756 148.494 883.102 148.494C872.875 148.494 864.281 151.086 857.321 156.271C850.361 161.385 845.105 168.558 841.554 177.791C838.003 186.953 836.227 197.642 836.227 209.858ZM1016.16 73.494V148.494H992.726V73.494H1016.16ZM1070.71 73.494V148.494H1047.27V73.494H1070.71ZM1128.32 261.846L1126.61 273.352C1125.41 281.449 1123.56 290.113 1121.07 299.346C1118.66 308.579 1116.14 317.279 1113.51 325.447C1110.88 333.615 1108.71 340.113 1107.01 344.943H1087.83C1088.76 340.397 1089.96 334.396 1091.46 326.939C1092.95 319.481 1094.44 311.136 1095.93 301.903C1097.49 292.741 1098.77 283.366 1099.77 273.778L1101.04 261.846H1128.32ZM1281.01 73.494V148.494H1257.57V73.494H1281.01ZM1335.55 73.494V148.494H1312.11V73.494H1335.55ZM1446.75 295.085C1431.41 295.085 1418.2 291.463 1407.12 284.218C1396.04 276.974 1387.51 266.995 1381.55 254.282C1375.58 241.569 1372.6 227.045 1372.6 210.71C1372.6 194.091 1375.65 179.424 1381.76 166.711C1387.94 153.927 1396.53 143.949 1407.54 136.775C1418.62 129.531 1431.55 125.909 1446.32 125.909C1457.83 125.909 1468.2 128.039 1477.43 132.301C1486.66 136.562 1494.23 142.528 1500.12 150.199C1506.02 157.869 1509.67 166.818 1511.09 177.045H1485.95C1484.03 169.588 1479.77 162.983 1473.17 157.23C1466.63 151.406 1457.83 148.494 1446.75 148.494C1436.95 148.494 1428.35 151.051 1420.97 156.164C1413.65 161.207 1407.93 168.345 1403.81 177.578C1399.77 186.74 1397.74 197.5 1397.74 209.858C1397.74 222.5 1399.73 233.508 1403.71 242.883C1407.76 252.258 1413.44 259.538 1420.75 264.723C1428.14 269.907 1436.8 272.5 1446.75 272.5C1453.28 272.5 1459.21 271.363 1464.54 269.091C1469.87 266.818 1474.38 263.551 1478.07 259.289C1481.76 255.028 1484.39 249.914 1485.95 243.949H1511.09C1509.67 253.608 1506.16 262.308 1500.55 270.049C1495.01 277.72 1487.66 283.828 1478.49 288.373C1469.4 292.848 1458.82 295.085 1446.75 295.085ZM1569.58 73.494V148.494H1546.14V73.494H1569.58ZM1624.13 73.494V148.494H1600.69V73.494H1624.13ZM1681.73 261.846L1680.03 273.352C1678.82 281.449 1676.98 290.113 1674.49 299.346C1672.08 308.579 1669.55 317.279 1666.93 325.447C1664.3 333.615 1662.13 340.113 1660.43 344.943H1641.25C1642.18 340.397 1643.38 334.396 1644.87 326.939C1646.37 319.481 1647.86 311.136 1649.35 301.903C1650.91 292.741 1652.19 283.366 1653.18 273.778L1654.46 261.846H1681.73ZM1834.42 73.494V148.494H1810.99V73.494H1834.42ZM1888.97 73.494V148.494H1865.53V73.494H1888.97ZM1981.84 295.511C1971.47 295.511 1962.06 293.558 1953.61 289.652C1945.16 285.674 1938.45 279.957 1933.48 272.5C1928.5 264.971 1926.02 255.88 1926.02 245.227C1926.02 235.852 1927.86 228.252 1931.56 222.429C1935.25 216.534 1940.19 211.917 1946.37 208.579C1952.54 205.241 1959.36 202.755 1966.82 201.122C1974.35 199.417 1981.91 198.068 1989.51 197.074C1999.46 195.795 2007.52 194.836 2013.7 194.197C2019.95 193.487 2024.49 192.315 2027.33 190.681C2030.24 189.048 2031.7 186.207 2031.7 182.159V181.306C2031.7 170.795 2028.82 162.627 2023.07 156.804C2017.39 150.98 2008.76 148.068 1997.18 148.068C1985.18 148.068 1975.77 150.696 1968.95 155.951C1962.13 161.207 1957.34 166.818 1954.57 172.784L1930.71 164.261C1934.97 154.318 1940.65 146.576 1947.75 141.037C1954.92 135.426 1962.74 131.52 1971.19 129.318C1979.71 127.045 1988.09 125.909 1996.33 125.909C2001.59 125.909 2007.62 126.548 2014.44 127.826C2021.33 129.034 2027.97 131.555 2034.36 135.39C2040.83 139.225 2046.19 145.014 2050.45 152.755C2054.71 160.497 2056.84 170.866 2056.84 183.863V291.676H2031.7V269.517H2030.42C2028.72 273.068 2025.88 276.868 2021.9 280.916C2017.92 284.964 2012.63 288.409 2006.02 291.25C1999.42 294.091 1991.36 295.511 1981.84 295.511ZM1985.68 272.926C1995.62 272.926 2004 270.973 2010.82 267.066C2017.71 263.16 2022.89 258.118 2026.37 251.939C2029.92 245.76 2031.7 239.261 2031.7 232.443V209.431C2030.63 210.71 2028.29 211.882 2024.67 212.947C2021.12 213.941 2017 214.829 2012.31 215.61C2007.69 216.321 2003.18 216.96 1998.78 217.528C1994.45 218.025 1990.93 218.451 1988.23 218.806C1981.7 219.659 1975.59 221.044 1969.91 222.961C1964.3 224.808 1959.75 227.613 1956.27 231.377C1952.86 235.071 1951.16 240.113 1951.16 246.505C1951.16 255.241 1954.39 261.846 1960.85 266.321C1967.39 270.724 1975.66 272.926 1985.68 272.926ZM2124.46 73.494V148.494H2101.03V73.494H2124.46ZM2179.01 73.494V148.494H2155.57V73.494H2179.01ZM2236.62 261.846L2234.91 273.352C2233.71 281.449 2231.86 290.113 2229.37 299.346C2226.96 308.579 2224.44 317.279 2221.81 325.447C2219.18 333.615 2217.02 340.113 2215.31 344.943H2196.13C2197.06 340.397 2198.27 334.396 2199.76 326.939C2201.25 319.481 2202.74 311.136 2204.23 301.903C2205.79 292.741 2207.07 283.366 2208.07 273.778L2209.35 261.846H2236.62ZM2389.31 73.494V148.494H2365.87V73.494H2389.31ZM2443.85 73.494V148.494H2420.42V73.494H2443.85ZM2491.98 291.676V73.494H2517.12V154.034H2519.25C2521.1 151.193 2523.66 147.571 2526.92 143.167C2530.26 138.693 2535.02 134.716 2541.2 131.235C2547.45 127.684 2555.9 125.909 2566.55 125.909C2580.33 125.909 2592.48 129.353 2602.99 136.243C2613.5 143.132 2621.7 152.897 2627.6 165.539C2633.49 178.181 2636.44 193.096 2636.44 210.284C2636.44 227.613 2633.49 242.635 2627.6 255.348C2621.7 267.99 2613.54 277.791 2603.1 284.751C2592.65 291.64 2580.62 295.085 2566.98 295.085C2556.47 295.085 2548.05 293.345 2541.73 289.865C2535.41 286.314 2530.55 282.301 2527.14 277.826C2523.73 273.281 2521.1 269.517 2519.25 266.534H2516.27V291.676H2491.98ZM2516.7 209.858C2516.7 222.216 2518.51 233.118 2522.13 242.564C2525.75 251.939 2531.04 259.289 2538 264.616C2544.96 269.872 2553.49 272.5 2563.57 272.5C2574.08 272.5 2582.85 269.73 2589.88 264.19C2596.99 258.579 2602.31 251.051 2605.86 241.605C2609.49 232.088 2611.3 221.505 2611.3 209.858C2611.3 198.352 2609.52 187.983 2605.97 178.75C2602.49 169.446 2597.2 162.095 2590.1 156.697C2583.07 151.228 2574.22 148.494 2563.57 148.494C2553.34 148.494 2544.75 151.086 2537.79 156.271C2530.83 161.385 2525.57 168.558 2522.02 177.791C2518.47 186.953 2516.7 197.642 2516.7 209.858ZM2696.63 73.494V148.494H2673.19V73.494H2696.63ZM2751.18 73.494V148.494H2727.74V73.494H2751.18ZM2808.79 261.846L2807.08 273.352C2805.87 281.449 2804.03 290.113 2801.54 299.346C2799.13 308.579 2796.61 317.279 2793.98 325.447C2791.35 333.615 2789.18 340.113 2787.48 344.943H2768.3C2769.23 340.397 2770.43 334.396 2771.92 326.939C2773.42 319.481 2774.91 311.136 2776.4 301.903C2777.96 292.741 2779.24 283.366 2780.23 273.778L2781.51 261.846H2808.79ZM2961.48 73.494V148.494H2938.04V73.494H2961.48ZM3016.02 73.494V148.494H2992.58V73.494H3016.02ZM3108.89 295.511C3098.52 295.511 3089.11 293.558 3080.66 289.652C3072.21 285.674 3065.5 279.957 3060.53 272.5C3055.55 264.971 3053.07 255.88 3053.07 245.227C3053.07 235.852 3054.92 228.252 3058.61 222.429C3062.3 216.534 3067.24 211.917 3073.42 208.579C3079.6 205.241 3086.41 202.755 3093.87 201.122C3101.4 199.417 3108.96 198.068 3116.56 197.074C3126.51 195.795 3134.57 194.836 3140.75 194.197C3147 193.487 3151.54 192.315 3154.38 190.681C3157.29 189.048 3158.75 186.207 3158.75 182.159V181.306C3158.75 170.795 3155.87 162.627 3150.12 156.804C3144.44 150.98 3135.81 148.068 3124.23 148.068C3112.23 148.068 3102.82 150.696 3096 155.951C3089.18 161.207 3084.39 166.818 3081.62 172.784L3057.76 164.261C3062.02 154.318 3067.7 146.576 3074.8 141.037C3081.97 135.426 3089.79 131.52 3098.24 129.318C3106.76 127.045 3115.14 125.909 3123.38 125.909C3128.64 125.909 3134.67 126.548 3141.49 127.826C3148.38 129.034 3155.02 131.555 3161.41 135.39C3167.88 139.225 3173.24 145.014 3177.5 152.755C3181.76 160.497 3183.89 170.866 3183.89 183.863V291.676H3158.75V269.517H3157.47C3155.77 273.068 3152.93 276.868 3148.95 280.916C3144.97 284.964 3139.68 288.409 3133.08 291.25C3126.47 294.091 3118.41 295.511 3108.89 295.511ZM3112.73 272.926C3122.67 272.926 3131.05 270.973 3137.87 267.066C3144.76 263.16 3149.94 258.118 3153.42 251.939C3156.97 245.76 3158.75 239.261 3158.75 232.443V209.431C3157.68 210.71 3155.34 211.882 3151.72 212.947C3148.17 213.941 3144.05 214.829 3139.36 215.61C3134.74 216.321 3130.23 216.96 3125.83 217.528C3121.5 218.025 3117.98 218.451 3115.28 218.806C3108.75 219.659 3102.64 221.044 3096.96 222.961C3091.35 224.808 3086.8 227.613 3083.32 231.377C3079.92 235.071 3078.21 240.113 3078.21 246.505C3078.21 255.241 3081.44 261.846 3087.91 266.321C3094.44 270.724 3102.71 272.926 3112.73 272.926ZM3251.51 73.494V148.494H3228.08V73.494H3251.51ZM3306.06 73.494V148.494H3282.62V73.494H3306.06ZM3401.06 63.2667V335.994H3337.99V315.113H3377.2V84.1474H3337.99V63.2667H3401.06Z" fill="#006CA9"/>
<path d="M317.193 412.545V558H299.58V431.011H298.727L263.216 454.591V436.693L299.58 412.545H317.193Z" fill="#737370"/>
<path d="M1959.06 558V545.216L2007.07 492.659C2012.7 486.504 2017.34 481.153 2020.99 476.608C2024.63 472.015 2027.33 467.706 2029.09 463.682C2030.88 459.61 2031.78 455.348 2031.78 450.898C2031.78 445.784 2030.55 441.357 2028.09 437.616C2025.68 433.876 2022.36 430.988 2018.15 428.952C2013.93 426.916 2009.2 425.898 2003.94 425.898C1998.36 425.898 1993.48 427.058 1989.31 429.378C1985.19 431.651 1982 434.847 1979.72 438.966C1977.5 443.085 1976.39 447.915 1976.39 453.455H1959.62C1959.62 444.932 1961.59 437.451 1965.52 431.011C1969.45 424.572 1974.8 419.553 1981.57 415.955C1988.39 412.356 1996.04 410.557 2004.51 410.557C2013.03 410.557 2020.59 412.356 2027.17 415.955C2033.75 419.553 2038.91 424.406 2042.65 430.514C2046.39 436.622 2048.26 443.417 2048.26 450.898C2048.26 456.248 2047.29 461.48 2045.35 466.594C2043.46 471.66 2040.14 477.318 2035.41 483.568C2030.72 489.771 2024.21 497.347 2015.88 506.295L1983.2 541.239V542.375H2050.82V558H1959.06Z" fill="#737370"/>
<path d="M3120.2 559.989C3110.83 559.989 3102.47 558.379 3095.13 555.159C3087.84 551.939 3082.04 547.465 3077.73 541.736C3073.47 535.959 3071.15 529.259 3070.77 521.636H3088.67C3089.05 526.324 3090.66 530.372 3093.5 533.781C3096.34 537.143 3100.06 539.747 3104.65 541.594C3109.24 543.44 3114.33 544.364 3119.92 544.364C3126.17 544.364 3131.71 543.275 3136.54 541.097C3141.37 538.919 3145.16 535.888 3147.9 532.006C3150.65 528.123 3152.02 523.625 3152.02 518.511C3152.02 513.161 3150.7 508.45 3148.05 504.378C3145.39 500.259 3141.51 497.039 3136.4 494.719C3131.28 492.399 3125.03 491.239 3117.65 491.239H3106V475.614H3117.65C3123.42 475.614 3128.49 474.572 3132.85 472.489C3137.25 470.405 3140.68 467.47 3143.14 463.682C3145.65 459.894 3146.91 455.443 3146.91 450.33C3146.91 445.405 3145.82 441.12 3143.64 437.474C3141.46 433.829 3138.39 430.988 3134.41 428.952C3130.48 426.916 3125.84 425.898 3120.49 425.898C3115.47 425.898 3110.73 426.821 3106.28 428.668C3101.88 430.467 3098.28 433.095 3095.49 436.551C3092.7 439.96 3091.18 444.08 3090.94 448.909H3073.9C3074.18 441.286 3076.48 434.61 3080.79 428.881C3085.1 423.104 3090.73 418.606 3097.69 415.386C3104.7 412.167 3112.39 410.557 3120.77 410.557C3129.77 410.557 3137.49 412.38 3143.93 416.026C3150.37 419.624 3155.31 424.383 3158.77 430.301C3162.23 436.22 3163.95 442.612 3163.95 449.477C3163.95 457.669 3161.8 464.652 3157.49 470.429C3153.23 476.205 3147.43 480.206 3140.09 482.432V483.568C3149.28 485.083 3156.45 488.99 3161.61 495.287C3166.77 501.537 3169.35 509.278 3169.35 518.511C3169.35 526.419 3167.2 533.521 3162.89 539.818C3158.63 546.068 3152.8 550.992 3145.42 554.591C3138.03 558.189 3129.63 559.989 3120.2 559.989ZM3347.12 548.909L3336.18 538.114L3389.03 485.273L3336.18 432.574L3347.12 421.636L3410.76 485.273L3347.12 548.909ZM3264.59 509.989V494.364H3391.16L3375.53 509.989H3264.59ZM3264.59 476.182V460.557H3375.53L3391.16 476.182H3264.59ZM3496.32 458V445.216C3496.32 441.333 3497.01 437.214 3498.38 432.858C3499.8 428.455 3501.84 424.217 3504.49 420.145C3507.19 416.026 3510.43 412.451 3514.22 409.42L3523.31 416.807C3520.33 421.068 3517.72 425.519 3515.5 430.159C3513.32 434.752 3512.23 439.676 3512.23 444.932V458H3496.32ZM3532.69 458V445.216C3532.69 441.333 3533.37 437.214 3534.75 432.858C3536.17 428.455 3538.2 424.217 3540.85 420.145C3543.55 416.026 3546.8 412.451 3550.58 409.42L3559.68 416.807C3556.69 421.068 3554.09 425.519 3551.86 430.159C3549.68 434.752 3548.6 439.676 3548.6 444.932V458H3532.69ZM3610.28 560.557C3603.37 560.557 3597.09 559.255 3591.46 556.651C3585.82 553.999 3581.35 550.188 3578.03 545.216C3574.72 540.197 3573.06 534.136 3573.06 527.034C3573.06 520.784 3574.29 515.718 3576.76 511.835C3579.22 507.905 3582.51 504.828 3586.63 502.602C3590.75 500.377 3595.29 498.72 3600.26 497.631C3605.28 496.494 3610.33 495.595 3615.39 494.932C3622.02 494.08 3627.4 493.44 3631.51 493.014C3635.68 492.541 3638.71 491.759 3640.61 490.67C3642.55 489.581 3643.52 487.687 3643.52 484.989V484.42C3643.52 477.413 3641.6 471.968 3637.76 468.085C3633.98 464.203 3628.22 462.261 3620.51 462.261C3612.5 462.261 3606.23 464.013 3601.69 467.517C3597.14 471.021 3593.94 474.761 3592.1 478.739L3576.19 473.057C3579.03 466.428 3582.82 461.267 3587.55 457.574C3592.33 453.833 3597.54 451.229 3603.18 449.761C3608.86 448.246 3614.45 447.489 3619.94 447.489C3623.44 447.489 3627.47 447.915 3632.01 448.767C3636.6 449.572 3641.03 451.253 3645.29 453.81C3649.6 456.366 3653.18 460.225 3656.02 465.386C3658.86 470.547 3660.28 477.46 3660.28 486.125V558H3643.52V543.227H3642.67C3641.53 545.595 3639.64 548.128 3636.98 550.827C3634.33 553.526 3630.8 555.822 3626.4 557.716C3622 559.61 3616.62 560.557 3610.28 560.557ZM3612.84 545.5C3619.46 545.5 3625.05 544.198 3629.6 541.594C3634.19 538.99 3637.65 535.628 3639.97 531.509C3642.33 527.389 3643.52 523.057 3643.52 518.511V503.17C3642.81 504.023 3641.25 504.804 3638.83 505.514C3636.46 506.177 3633.72 506.769 3630.59 507.29C3627.51 507.763 3624.51 508.189 3621.57 508.568C3618.68 508.9 3616.34 509.184 3614.54 509.42C3610.18 509.989 3606.11 510.912 3602.32 512.19C3598.58 513.421 3595.55 515.292 3593.23 517.801C3590.96 520.263 3589.82 523.625 3589.82 527.886C3589.82 533.71 3591.98 538.114 3596.29 541.097C3600.64 544.032 3606.16 545.5 3612.84 545.5ZM3705.64 412.545V425.33C3705.64 429.212 3704.93 433.355 3703.51 437.759C3702.14 442.115 3700.11 446.352 3697.41 450.472C3694.75 454.544 3691.54 458.095 3687.75 461.125L3678.66 453.739C3681.64 449.477 3684.22 445.05 3686.4 440.457C3688.62 435.817 3689.74 430.869 3689.74 425.614V412.545H3705.64ZM3742.01 412.545V425.33C3742.01 429.212 3741.3 433.355 3739.88 437.759C3738.5 442.115 3736.47 446.352 3733.77 450.472C3731.12 454.544 3727.9 458.095 3724.11 461.125L3715.02 453.739C3718 449.477 3720.58 445.05 3722.76 440.457C3724.99 435.817 3726.1 430.869 3726.1 425.614V412.545H3742.01Z" fill="#FA8F00"/>
<path d="M2523.06 789V776.216L2571.07 723.659C2576.7 717.504 2581.34 712.153 2584.99 707.608C2588.63 703.015 2591.33 698.706 2593.09 694.682C2594.88 690.61 2595.78 686.348 2595.78 681.898C2595.78 676.784 2594.55 672.357 2592.09 668.616C2589.68 664.876 2586.36 661.988 2582.15 659.952C2577.93 657.916 2573.2 656.898 2567.94 656.898C2562.36 656.898 2557.48 658.058 2553.31 660.378C2549.19 662.651 2546 665.847 2543.72 669.966C2541.5 674.085 2540.39 678.915 2540.39 684.455H2523.62C2523.62 675.932 2525.59 668.451 2529.52 662.011C2533.45 655.572 2538.8 650.553 2545.57 646.955C2552.39 643.356 2560.04 641.557 2568.51 641.557C2577.03 641.557 2584.59 643.356 2591.17 646.955C2597.75 650.553 2602.91 655.406 2606.65 661.514C2610.39 667.622 2612.26 674.417 2612.26 681.898C2612.26 687.248 2611.29 692.48 2609.35 697.594C2607.46 702.66 2604.14 708.318 2599.41 714.568C2594.72 720.771 2588.21 728.347 2579.88 737.295L2547.2 772.239V773.375H2614.82V789H2523.06Z" fill="#737370"/>
<path d="M1469.19 869.545V1015H1451.58V888.011H1450.73L1415.22 911.591V893.693L1451.58 869.545H1469.19Z" fill="#737370"/>
<path d="M898.193 652.545V798H880.58V671.011H879.727L844.216 694.591V676.693L880.58 652.545H898.193Z" fill="#737370"/>
<path d="M878.036 322.444C876.083 320.491 872.917 320.491 870.964 322.444L839.145 354.263C837.192 356.216 837.192 359.382 839.145 361.335C841.097 363.287 844.263 363.287 846.216 361.335L874.5 333.05L902.784 361.335C904.737 363.287 907.903 363.287 909.855 361.335C911.808 359.382 911.808 356.216 909.855 354.263L878.036 322.444ZM879.5 636.02V325.979H869.5V636.02H879.5Z" fill="#82D1F5"/>
<path d="M2560.54 322.463C2558.58 320.511 2555.42 320.511 2553.46 322.463L2521.64 354.283C2519.69 356.236 2519.69 359.401 2521.64 361.354C2523.6 363.307 2526.76 363.307 2528.72 361.354L2557 333.07L2585.28 361.354C2587.24 363.307 2590.4 363.307 2592.36 361.354C2594.31 359.401 2594.31 356.236 2592.36 354.283L2560.54 322.463ZM2562 636.039V325.999H2552V636.039H2562Z" fill="#82D1F5"/>
<path d="M301.036 322.433C299.083 320.48 295.917 320.48 293.964 322.433L262.145 354.253C260.192 356.205 260.192 359.371 262.145 361.324C264.097 363.276 267.263 363.276 269.216 361.324L297.5 333.039L325.784 361.324C327.737 363.276 330.903 363.276 332.855 361.324C334.808 359.371 334.808 356.205 332.855 354.253L301.036 322.433ZM302.5 399.031V325.968H292.5V399.031H302.5Z" fill="#82D1F5"/>
<path d="M3123.54 322.464C3121.58 320.511 3118.42 320.511 3116.46 322.464L3084.64 354.284C3082.69 356.237 3082.69 359.402 3084.64 361.355C3086.6 363.308 3089.76 363.308 3091.72 361.355L3120 333.071L3148.28 361.355C3150.24 363.308 3153.4 363.308 3155.36 361.355C3157.31 359.402 3157.31 356.237 3155.36 354.284L3123.54 322.464ZM3125 399.062V326H3115V399.062H3125Z" fill="#82D1F5"/>
<path d="M1988.54 322.464C1986.58 320.511 1983.42 320.511 1981.46 322.464L1949.64 354.284C1947.69 356.237 1947.69 359.402 1949.64 361.355C1951.6 363.308 1954.76 363.308 1956.72 361.355L1985 333.071L2013.28 361.355C2015.24 363.308 2018.4 363.308 2020.36 361.355C2022.31 359.402 2022.31 356.237 2020.36 354.284L1988.54 322.464ZM1990 399.062V326H1980V399.062H1990Z" fill="#82D1F5"/>
<path d="M1441.04 322.459C1439.08 320.506 1435.92 320.506 1433.96 322.459L1402.14 354.279C1400.19 356.231 1400.19 359.397 1402.14 361.35C1404.1 363.302 1407.26 363.302 1409.22 361.35L1437.5 333.065L1465.78 361.35C1467.74 363.302 1470.9 363.302 1472.86 361.35C1474.81 359.397 1474.81 356.231 1472.86 354.279L1441.04 322.459ZM1442.5 862.004V325.994H1432.5V862.004H1442.5Z" fill="#82D1F5"/>
</svg>
